<svg id="Layer_1" data-name="Layer 1" xmlns="http://www.w3.org/2000/svg" viewBox="0 0 1705.02 375.83"><defs><style>.cls-1{font-size:184.53px;fill:#fff;font-family:Oswald-SemiBold, Oswald;font-weight:600;}.cls-2{fill:#a0432e;}.cls-3{fill:#b68f43;}.cls-4{fill:#3c4d59;}</style></defs><title>logo</title><text class="cls-1" transform="translate(168.77 253.01)"><tspan xml:space="preserve">FIND YOUR ME   E</tspan></text><rect class="cls-2" x="1319.24" y="100.55" width="33.75" height="162.16" rx="13.04"/><rect class="cls-3" x="1351.39" y="101.02" width="33.75" height="164.59" rx="13.04" transform="translate(196.65 -546.8) rotate(24.3)"/><rect class="cls-3" x="1417.21" y="99.33" width="33.75" height="164.59" rx="13.04" transform="translate(201.79 -574.04) rotate(24.3)"/><rect class="cls-2" x="1384.89" y="100.55" width="33.75" height="162.16" rx="13.04"/><rect class="cls-2" x="1450.54" y="100.55" width="33.75" height="162.16" rx="13.04"/><rect class="cls-4" x="1537.71" y="143.06" width="18.54" height="89.07" rx="3.48" transform="translate(292.05 1111.43) rotate(-43.27)"/><path class="cls-4" d="M1478.75,52.52A66.49,66.49,0,1,0,1545.23,119,66.49,66.49,0,0,0,1478.75,52.52Zm0,116.36A49.88,49.88,0,1,1,1528.62,119,49.88,49.88,0,0,1,1478.75,168.88Z"/></svg>