<svg id="Layer_1" data-name="Layer 1" xmlns="http://www.w3.org/2000/svg" viewBox="0 0 960 960"><defs><style>.cls-1{fill:#a0432e;}.cls-2{fill:#b68f43;}.cls-3{fill:#3c4d59;}</style></defs><title>logo</title><rect class="cls-1" x="98.25" y="195.32" width="127.49" height="612.48" rx="17.55"/><rect class="cls-2" x="219.67" y="197.09" width="127.49" height="621.68" rx="17.55" transform="translate(234.12 -71.63) rotate(24.3)"/><rect class="cls-2" x="468.3" y="190.72" width="127.49" height="621.68" rx="17.55" transform="translate(253.53 -174.5) rotate(24.3)"/><rect class="cls-1" x="346.21" y="195.32" width="127.49" height="612.48" rx="17.55"/><rect class="cls-1" x="594.17" y="195.32" width="127.49" height="612.48" rx="17.55"/><rect class="cls-3" x="810.25" y="304.75" width="46.97" height="225.65" rx="9.93" transform="translate(-59.54 685.05) rotate(-43.27)"/><path class="cls-3" d="M660.86,75.37A168.45,168.45,0,1,0,829.3,243.82,168.45,168.45,0,0,0,660.86,75.37Zm0,294.81A126.36,126.36,0,1,1,787.22,243.82,126.36,126.36,0,0,1,660.86,370.18Z"/></svg>